<svg width="550" height="550" viewBox="0 0 550 550" fill="none" xmlns="http://www.w3.org/2000/svg">
<mask id="mask0_4925:1669" style="mask-type:alpha" maskUnits="userSpaceOnUse" x="0" y="0" width="550" height="550">
<circle cx="275" cy="275" r="275" fill="#2C2C2C"/>
</mask>
<g mask="url(#mask0_4925:1669)">
<mask id="path-2-inside-1_4925:1669" fill="white">
<path d="M334.048 6.41418C400.316 20.983 458.858 59.5355 498.418 114.659C537.979 169.782 555.765 237.584 548.356 305.028C540.947 372.472 508.867 434.797 458.283 480.018C407.7 525.238 342.185 550.163 274.335 549.999C206.485 549.835 141.092 524.594 90.7276 479.129C40.3635 433.664 8.58499 371.185 1.50244 303.706C-5.58011 236.227 12.5333 168.511 52.3599 113.58C92.1865 58.6488 150.914 20.3799 217.251 6.13176L275 275L334.048 6.41418Z"/>
</mask>
<path d="M334.048 6.41418C400.316 20.983 458.858 59.5355 498.418 114.659C537.979 169.782 555.765 237.584 548.356 305.028C540.947 372.472 508.867 434.797 458.283 480.018C407.7 525.238 342.185 550.163 274.335 549.999C206.485 549.835 141.092 524.594 90.7276 479.129C40.3635 433.664 8.58499 371.185 1.50244 303.706C-5.58011 236.227 12.5333 168.511 52.3599 113.58C92.1865 58.6488 150.914 20.3799 217.251 6.13176L275 275L334.048 6.41418Z" fill="white" stroke="#41B883" stroke-width="10" mask="url(#path-2-inside-1_4925:1669)"/>
<path d="M332.272 6L274.998 105.2L217.726 6H27L275 435.553L523 6H332.272Z" fill="#41B883"/>
<path d="M332.271 6L274.997 105.2L217.725 6H126.199L274.999 263.727L423.798 6H332.271Z" fill="#34495E"/>
</g>
</svg>
